<svg xmlns="http://www.w3.org/2000/svg" xml:space="preserve" style="enable-background:new 0 0 595.28 595.28" viewBox="0 0 595.28 595.28"><style>.st0,.st1{fill-rule:evenodd;clip-rule:evenodd;fill:#12110c}.st1{fill:#fff}</style><g id="Logo"><path d="M277.55 536.29c-45.22-37.75-82.8-81.51-111.67-130.07-23.63-39.71-41.64-82.91-53.51-128.41-8.64-33.13-14.03-67.98-16.01-103.58-1.44-25.78.03-59.08 1.04-76.64l.69-12.06 29.59-.37c61.08-.72 111.91-12.18 155.4-35.02l14.5-7.62 14.5 7.62c43.49 22.84 94.32 34.3 155.39 35.02l29.61.35.75 12.01c1.07 17.25 2.63 50.17.98 76.74-2.27 36.66-7.66 71.5-16.02 103.55-11.87 45.49-29.87 88.69-53.5 128.41-28.89 48.56-66.47 92.33-111.68 130.07l-19.71 16.46-.32-.26-.32.26-19.71-16.46z" class="st0"/><path d="M285.85 526.35c-44.1-36.81-80.72-79.45-108.84-126.75-23.01-38.67-40.55-80.74-52.11-125.05-8.42-32.3-13.68-66.29-15.61-101.03-1.44-25.71.16-59.92 1.04-75.18l17.51-.22c63.16-.75 115.92-12.69 161.26-36.5l8.48-4.45 8.47 4.45c45.35 23.82 98.1 35.76 161.27 36.51l17.58.21c.93 15.03 2.62 48.67.98 75.14-2.22 35.84-7.47 69.84-15.62 101.08-11.56 44.31-29.09 86.38-52.1 125.05-28.14 47.3-64.76 89.95-108.85 126.75l-11.45 9.57-.27-.22-.27.22-11.47-9.58z" class="st1"/><path d="M467.11 116.35c-59.02-.7-116.7-10.85-169.53-38.6-52.83 27.75-110.51 37.9-169.53 38.6-.62 16.05-23.99 234.52 169.48 396.01.01-.01.03-.02.05-.04.01.01.04.03.05.04C491.09 350.87 467.72 132.4 467.11 116.35z" class="st0"/><path d="M156.19 151.46h282.78l-6.84 15.55H328.3v.15H180.54L297.57 434.1l54.83-124.73h17.16l-71.98 163.74z" class="st1"/><path d="M286.6 186.4v-.95h-60.86v51.07l14.08 32.16v-32.21h32.71v106.56l14.07 32.4V186.4zm-14.07 32.51-.01 3.4h-32.69v-22.72h32.71v19.32zM348.71 222.31v14.12h-25.84v106.61l-14.18 32.39V185.45h60.87v14.14h-46.69v22.72z" class="st1"/></g></svg>